<svg width="199" height="48" viewBox="0 0 199 48" fill="none" xmlns="http://www.w3.org/2000/svg">
<path d="M75.412 35.976C75.988 37.464 76.816 38.232 77.896 38.28V39C76.936 38.928 75.652 38.892 74.044 38.892C71.98 38.892 70.444 38.928 69.436 39V38.28C70.348 38.232 70.996 38.124 71.38 37.956C71.788 37.764 71.992 37.428 71.992 36.948C71.992 36.54 71.848 35.976 71.56 35.256L69.364 29.352H60.652L59.176 33.168C58.696 34.464 58.456 35.448 58.456 36.12C58.456 36.864 58.708 37.404 59.212 37.74C59.74 38.076 60.532 38.256 61.588 38.28V39C60.22 38.928 58.84 38.892 57.448 38.892C56.368 38.892 55.468 38.928 54.748 39V38.28C55.948 37.992 56.896 36.948 57.592 35.148L66.052 13.332H66.628L75.412 35.976ZM69.076 28.632L65.044 17.868L60.94 28.632H69.076ZM83.7238 35.652C83.7238 36.636 83.9278 37.32 84.3358 37.704C84.7438 38.064 85.4518 38.244 86.4598 38.244V39C84.2518 38.904 82.7998 38.856 82.1038 38.856C81.4078 38.856 79.9558 38.904 77.7478 39V38.244C78.7558 38.244 79.4638 38.064 79.8718 37.704C80.2798 37.32 80.4838 36.636 80.4838 35.652V15.096C80.4838 13.992 80.2798 13.188 79.8718 12.684C79.4638 12.18 78.7558 11.928 77.7478 11.928V11.172C78.4918 11.244 79.2358 11.28 79.9798 11.28C81.4918 11.28 82.7398 11.112 83.7238 10.776V35.652ZM91.6846 11.46C92.3086 11.46 92.8486 11.688 93.3046 12.144C93.7606 12.6 93.9886 13.14 93.9886 13.764C93.9886 14.388 93.7606 14.928 93.3046 15.384C92.8486 15.84 92.3086 16.068 91.6846 16.068C91.0606 16.068 90.5206 15.84 90.0646 15.384C89.6086 14.928 89.3806 14.388 89.3806 13.764C89.3806 13.14 89.6086 12.6 90.0646 12.144C90.5206 11.688 91.0606 11.46 91.6846 11.46ZM93.5566 35.652C93.5566 36.636 93.7606 37.32 94.1686 37.704C94.5766 38.064 95.2846 38.244 96.2926 38.244V39C94.0846 38.904 92.6326 38.856 91.9366 38.856C91.2406 38.856 89.7886 38.904 87.5806 39V38.244C88.5886 38.244 89.2966 38.064 89.7046 37.704C90.1126 37.32 90.3166 36.636 90.3166 35.652V24.384C90.3166 23.28 90.1126 22.476 89.7046 21.972C89.2966 21.468 88.5886 21.216 87.5806 21.216V20.46C88.3486 20.532 89.0926 20.568 89.8126 20.568C91.3246 20.568 92.5726 20.4 93.5566 20.064V35.652ZM109.503 19.956C111.183 19.956 112.455 20.412 113.319 21.324C113.775 21.804 114.099 22.404 114.291 23.124C114.483 23.844 114.579 24.816 114.579 26.04V35.652C114.579 36.636 114.783 37.32 115.191 37.704C115.599 38.064 116.307 38.244 117.315 38.244V39C115.107 38.904 113.667 38.856 112.995 38.856C112.323 38.856 110.979 38.904 108.963 39V38.244C109.851 38.244 110.463 38.064 110.799 37.704C111.159 37.32 111.339 36.636 111.339 35.652V25.248C111.339 23.904 111.147 22.884 110.763 22.188C110.379 21.468 109.599 21.108 108.423 21.108C107.439 21.108 106.563 21.396 105.795 21.972C105.027 22.548 104.427 23.34 103.995 24.348C103.587 25.332 103.383 26.436 103.383 27.66V35.652C103.383 36.636 103.551 37.32 103.887 37.704C104.247 38.064 104.871 38.244 105.759 38.244V39C103.743 38.904 102.399 38.856 101.727 38.856C101.055 38.856 99.6154 38.904 97.4074 39V38.244C98.4154 38.244 99.1234 38.064 99.5314 37.704C99.9394 37.32 100.143 36.636 100.143 35.652V24.384C100.143 23.28 99.9394 22.476 99.5314 21.972C99.1234 21.468 98.4154 21.216 97.4074 21.216V20.46C98.1754 20.532 98.9194 20.568 99.6394 20.568C101.151 20.568 102.399 20.4 103.383 20.064V24.312C103.983 22.776 104.811 21.672 105.867 21C106.947 20.304 108.159 19.956 109.503 19.956ZM122.992 39.252C121.48 39.252 120.352 38.88 119.608 38.136C118.888 37.368 118.528 36.312 118.528 34.968C118.528 33.888 118.816 33 119.392 32.304C119.992 31.608 120.688 31.056 121.48 30.648C122.296 30.24 123.364 29.808 124.684 29.352C126.028 28.896 127.024 28.476 127.672 28.092C128.32 27.708 128.644 27.192 128.644 26.544V24.312C128.644 22.92 128.344 21.972 127.744 21.468C127.168 20.94 126.352 20.676 125.296 20.676C123.616 20.676 122.428 21.108 121.732 21.972C122.212 22.092 122.608 22.344 122.92 22.728C123.256 23.112 123.424 23.592 123.424 24.168C123.424 24.768 123.232 25.248 122.848 25.608C122.464 25.944 121.972 26.112 121.372 26.112C120.7 26.112 120.196 25.908 119.86 25.5C119.524 25.068 119.356 24.552 119.356 23.952C119.356 23.376 119.488 22.896 119.752 22.512C120.04 22.128 120.46 21.744 121.012 21.36C121.588 20.952 122.32 20.616 123.208 20.352C124.096 20.088 125.068 19.956 126.124 19.956C127.996 19.956 129.412 20.4 130.372 21.288C130.972 21.84 131.368 22.512 131.56 23.304C131.776 24.072 131.884 25.092 131.884 26.364V36.372C131.884 36.972 131.968 37.404 132.136 37.668C132.304 37.932 132.592 38.064 133 38.064C133.288 38.064 133.552 38.004 133.792 37.884C134.056 37.74 134.332 37.548 134.62 37.308L135.016 37.92C134.392 38.4 133.852 38.748 133.396 38.964C132.964 39.156 132.412 39.252 131.74 39.252C130.588 39.252 129.784 38.964 129.328 38.388C128.872 37.812 128.644 37.032 128.644 36.048C127.924 37.248 127.096 38.088 126.16 38.568C125.224 39.024 124.168 39.252 122.992 39.252ZM124.576 37.812C126.16 37.812 127.516 36.9 128.644 35.076V28.02C128.428 28.356 128.128 28.632 127.744 28.848C127.36 29.064 126.772 29.352 125.98 29.712C125.068 30.096 124.324 30.468 123.748 30.828C123.196 31.164 122.716 31.632 122.308 32.232C121.9 32.832 121.696 33.6 121.696 34.536C121.696 35.616 121.96 36.432 122.488 36.984C123.016 37.536 123.712 37.812 124.576 37.812ZM152.849 14.232C151.985 14.28 151.349 14.376 150.941 14.52C150.557 14.664 150.293 14.94 150.149 15.348C150.005 15.756 149.933 16.416 149.933 17.328V35.184C149.933 36.096 150.005 36.756 150.149 37.164C150.293 37.572 150.557 37.848 150.941 37.992C151.349 38.112 151.985 38.172 152.849 38.172H155.477C156.965 38.172 158.093 37.968 158.861 37.56C159.653 37.128 160.229 36.444 160.589 35.508C160.949 34.572 161.213 33.216 161.381 31.44H162.209C162.137 32.184 162.101 33.168 162.101 34.392C162.101 35.76 162.185 37.296 162.353 39C160.721 38.928 157.973 38.892 154.109 38.892C149.501 38.892 146.021 38.928 143.669 39V38.28C144.533 38.232 145.157 38.136 145.541 37.992C145.949 37.848 146.225 37.572 146.369 37.164C146.513 36.756 146.585 36.096 146.585 35.184V17.328C146.585 16.416 146.513 15.756 146.369 15.348C146.225 14.94 145.949 14.664 145.541 14.52C145.157 14.376 144.533 14.28 143.669 14.232V13.512C144.677 13.584 146.213 13.62 148.277 13.62C150.197 13.62 151.721 13.584 152.849 13.512V14.232ZM179.269 34.68C178.837 36 178.021 37.14 176.821 38.1C175.645 39.036 174.217 39.504 172.537 39.504C170.833 39.504 169.357 39.12 168.109 38.352C166.861 37.56 165.901 36.468 165.229 35.076C164.581 33.66 164.257 32.028 164.257 30.18C164.257 28.092 164.593 26.28 165.265 24.744C165.937 23.208 166.885 22.032 168.109 21.216C169.333 20.376 170.761 19.956 172.393 19.956C174.553 19.956 176.209 20.616 177.361 21.936C178.537 23.232 179.125 25.212 179.125 27.876H167.857C167.785 28.548 167.749 29.316 167.749 30.18C167.749 31.764 168.001 33.144 168.505 34.32C169.033 35.496 169.717 36.408 170.557 37.056C171.421 37.68 172.321 37.992 173.257 37.992C174.409 37.992 175.429 37.716 176.317 37.164C177.205 36.612 177.949 35.688 178.549 34.392L179.269 34.68ZM172.249 20.64C171.121 20.64 170.149 21.192 169.333 22.296C168.517 23.4 168.013 25.032 167.821 27.192H175.669C175.717 25.32 175.441 23.76 174.841 22.512C174.265 21.264 173.401 20.64 172.249 20.64ZM196.76 34.68C196.328 36 195.512 37.14 194.312 38.1C193.136 39.036 191.708 39.504 190.028 39.504C188.324 39.504 186.848 39.12 185.6 38.352C184.352 37.56 183.392 36.468 182.72 35.076C182.072 33.66 181.748 32.028 181.748 30.18C181.748 28.092 182.084 26.28 182.756 24.744C183.428 23.208 184.376 22.032 185.6 21.216C186.824 20.376 188.252 19.956 189.884 19.956C192.044 19.956 193.7 20.616 194.852 21.936C196.028 23.232 196.616 25.212 196.616 27.876H185.348C185.276 28.548 185.24 29.316 185.24 30.18C185.24 31.764 185.492 33.144 185.996 34.32C186.524 35.496 187.208 36.408 188.048 37.056C188.912 37.68 189.812 37.992 190.748 37.992C191.9 37.992 192.92 37.716 193.808 37.164C194.696 36.612 195.44 35.688 196.04 34.392L196.76 34.68ZM189.74 20.64C188.612 20.64 187.64 21.192 186.824 22.296C186.008 23.4 185.504 25.032 185.312 27.192H193.16C193.208 25.32 192.932 23.76 192.332 22.512C191.756 21.264 190.892 20.64 189.74 20.64Z" fill="#0E1112"/>
<circle cx="24.5" cy="25.5" r="22.5" fill="#B7CAD5"/>
<path d="M9.04397 41.4339C7.18397 41.4339 5.63397 41.0825 4.39397 40.3799C3.15397 39.6772 2.24464 38.7472 1.66597 37.5899C1.08731 36.3912 0.797974 35.0892 0.797974 33.6839C0.797974 31.9065 1.19064 30.4599 1.97597 29.3439C2.80264 28.2279 3.85664 27.3185 5.13797 26.6159C6.41931 25.9132 7.76264 25.3345 9.16797 24.8799C10.6146 24.4252 11.9786 23.9912 13.26 23.5779C14.5826 23.1232 15.6366 22.6065 16.422 22.0279C17.2486 21.4079 17.662 20.6225 17.662 19.6719V14.8359C17.662 13.7612 17.476 12.8105 17.104 11.9839C16.7733 11.1159 16.236 10.4545 15.492 9.99988C14.7893 9.54521 13.8593 9.31788 12.702 9.31788C11.8753 9.31788 11.0486 9.44188 10.222 9.68988C9.39531 9.89655 8.71331 10.2685 8.17597 10.8059C9.33331 11.2192 10.222 11.8599 10.842 12.7279C11.5033 13.5545 11.834 14.5052 11.834 15.5799C11.834 16.9852 11.338 18.1012 10.346 18.9279C9.39531 19.7545 8.25864 20.1679 6.93597 20.1679C5.44797 20.1679 4.31131 19.7132 3.52597 18.8039C2.78197 17.8532 2.40997 16.7165 2.40997 15.3939C2.40997 14.1952 2.69931 13.2032 3.27797 12.4179C3.89797 11.6325 4.74531 10.8885 5.81997 10.1859C6.97731 9.52455 8.36197 9.00788 9.97397 8.63588C11.6273 8.26388 13.4046 8.07788 15.306 8.07788C17.2073 8.07788 18.9226 8.28455 20.452 8.69788C21.9813 9.06988 23.2626 9.77255 24.296 10.8059C25.2466 11.7565 25.8666 12.9345 26.156 14.3399C26.4453 15.7039 26.59 17.4399 26.59 19.5479V36.4119C26.59 37.4452 26.6933 38.1685 26.9 38.5819C27.1066 38.9539 27.458 39.1399 27.954 39.1399C28.326 39.1399 28.6773 39.0366 29.008 38.8299C29.38 38.6232 29.7726 38.3752 30.186 38.0859L30.806 39.1399C29.938 39.8839 28.9253 40.4625 27.768 40.8759C26.652 41.2479 25.3913 41.4339 23.986 41.4339C22.4566 41.4339 21.2373 41.2272 20.328 40.8139C19.4186 40.3592 18.7573 39.7599 18.344 39.0159C17.972 38.2719 17.786 37.4039 17.786 36.4119C16.794 37.9825 15.5953 39.2226 14.19 40.1319C12.7846 40.9999 11.0693 41.4339 9.04397 41.4339ZM13.446 37.4659C14.2726 37.4659 15.0166 37.2799 15.678 36.9079C16.3806 36.4945 17.042 35.8332 17.662 34.9239V22.2139C17.29 22.8339 16.7733 23.3919 16.112 23.8879C15.4506 24.3839 14.748 24.9005 14.004 25.4379C13.26 25.9339 12.5366 26.4919 11.834 27.1119C11.1726 27.7319 10.6353 28.4965 10.222 29.4059C9.80864 30.3152 9.60197 31.4105 9.60197 32.6919C9.60197 34.3039 9.95331 35.5025 10.656 36.2879C11.3586 37.0732 12.2886 37.4659 13.446 37.4659Z" fill="white"/>
</svg>
